# xmcd CD database file
# Generated: Sat Sep 13 18:56:59 2003 by KSCD
# 
# Track frame offsets:
#       150
#       11878
#       26077
#       39210
#       56931
#       85061
#
# Disc length: 1238 seconds
#
# Revision: 1
# Processed by: cddbd v1.4PL0 Copyright (c) Steve Scherf et al.
# Submitted via: Kscd 1.3.3
#
DISCID=4504d406
DTITLE=Deborah Steel - You'll Have To Beg
DYEAR=1900
DGENRE=
TTITLE0=You'll Have To Beg
TTITLE1=Fire On The Mountain
TTITLE2=Goin' To Boston
TTITLE3=The Sign Of The Dove
TTITLE4=Walk The Extra Mile
TTITLE5=
EXTD=
EXTT0=
EXTT1=
EXTT2=
EXTT3=
EXTT4=
EXTT5=
PLAYORDER=
